<svg width="100" height="100" viewBox="0 0 100 100" fill="none" xmlns="http://www.w3.org/2000/svg">
<g clip-path="url(#clip0_165_3)">
<path d="M80 0H20C8.9543 0 0 8.9543 0 20V80C0 91.0457 8.9543 100 20 100H80C91.0457 100 100 91.0457 100 80V20C100 8.9543 91.0457 0 80 0Z" fill="#A9A9A9"/>
<path d="M40.3852 31.9V55.8C40.3852 59.5 39.3352 62.35 37.2352 64.35C35.1685 66.35 32.3685 67.35 28.8352 67.35C25.1352 67.35 22.1685 66.3 19.9352 64.2C17.7018 62.1 16.5852 59.1167 16.5852 55.25H25.0852C25.0852 56.7167 25.3852 57.8333 25.9852 58.6C26.5852 59.3333 27.4518 59.7 28.5852 59.7C29.6185 59.7 30.4185 59.3667 30.9852 58.7C31.5518 58.0333 31.8352 57.0667 31.8352 55.8V31.9H40.3852ZM80.2414 31.9L67.7914 67H57.0914L44.6414 31.9H53.7414L62.4414 58.4L71.1914 31.9H80.2414Z" fill="black"/>
</g>
<defs>
<clipPath id="clip0_165_3">
<rect width="100" height="100" fill="white"/>
</clipPath>
</defs>
</svg>
